<svg width="31" height="30" viewBox="0 0 31 30" fill="none" xmlns="http://www.w3.org/2000/svg">
<rect width="31" height="30" rx="4" fill="#E9ECEF"/>
<path d="M12.092 20.098C11.8587 20.098 11.6907 20.014 11.588 19.846C11.4947 19.6687 11.5227 19.4867 11.672 19.3L14.892 14.96L11.868 10.858C11.7093 10.6527 11.6767 10.466 11.77 10.298C11.8727 10.1207 12.0313 10.032 12.246 10.032C12.4793 10.032 12.6893 10.158 12.876 10.41L15.564 14.092L18.238 10.41C18.4153 10.158 18.6207 10.032 18.854 10.032C19.078 10.032 19.2367 10.1207 19.33 10.298C19.4327 10.466 19.4047 10.6527 19.246 10.858L16.208 14.96L19.442 19.3C19.582 19.4867 19.6053 19.6687 19.512 19.846C19.4187 20.014 19.2553 20.098 19.022 20.098C18.7887 20.098 18.5787 19.972 18.392 19.72L15.55 15.828L12.708 19.72C12.5307 19.972 12.3253 20.098 12.092 20.098Z" fill="#868E96"/>
</svg>
