<svg width="38" height="38" viewBox="0 0 38 38" fill="none" xmlns="http://www.w3.org/2000/svg">
<circle cx="19" cy="19" r="19" fill="#F8F9FA"/>
<path d="M22.4219 15.4688C22.3281 15.375 22.1875 15.375 22.0938 15.4688L16.9844 20.5781L16.75 22.7578C16.7031 23.0391 16.9609 23.2969 17.2422 23.25L19.4219 23.0156L24.5312 17.9062C24.625 17.8125 24.625 17.6719 24.5312 17.5781L22.4219 15.4688ZM26.2188 14.9297L25.0703 13.7812C24.7188 13.4297 24.1328 13.4297 23.7812 13.7812L22.9609 14.6016C22.8672 14.6953 22.8672 14.8359 22.9609 14.9297L25.0703 17.0391C25.1641 17.1328 25.3047 17.1328 25.3984 17.0391L26.2188 16.2188C26.5703 15.8672 26.5703 15.2812 26.2188 14.9297ZM22 21.6328V24H14.5V16.5H19.8672C19.9609 16.5 20.0312 16.4766 20.0781 16.4297L21.0156 15.4922C21.1797 15.3047 21.0625 15 20.8047 15H14.125C13.4922 15 13 15.5156 13 16.125V24.375C13 25.0078 13.4922 25.5 14.125 25.5H22.375C22.9844 25.5 23.5 25.0078 23.5 24.375V20.6953C23.5 20.4375 23.1953 20.3203 23.0078 20.4844L22.0703 21.4219C22.0234 21.4688 22 21.5391 22 21.6328Z" fill="#868E96"/>
</svg>
